<svg aria-hidden="true" style="width:0;height:0;position:absolute;overflow:hidden" xmlns="http://www.w3.org/2000/svg"><defs><symbol id="icon-search" viewBox="0 0 32 32"><path fill="none" stroke="#fff" style="stroke:var(--color1,#fff)" stroke-linejoin="round" stroke-linecap="round" stroke-width="2.667" d="M14.667 25.333c5.891 0 10.667-4.776 10.667-10.667S20.558 3.999 14.667 3.999 4 8.775 4 14.666s4.776 10.667 10.667 10.667zM28 28.001l-5.8-5.8"/></symbol><symbol id="icon-heart" viewBox="0 0 34 32"><path fill="#ff6b08" style="fill:var(--color2,#ff6b08)" d="m17.231 31.705-2.412-2.412C5.859 21.367.001 16.025.001 9.478.001 4.136 4.136.001 9.478.001c2.929 0 5.858 1.378 7.754 3.618 1.895-2.24 4.825-3.618 7.754-3.618 5.342 0 9.477 4.135 9.477 9.477 0 6.548-5.858 11.889-14.818 19.815l-2.412 2.412z"/></symbol><symbol id="icon-thumbs-up" viewBox="0 0 24 24"><path d="M19.57 8.676c-.391-.144-2.512-.406-3.883-.56C15.902 6.861 16 5.711 16 4.5 16 3.121 14.878 2 13.5 2S11 3.121 11 4.5c0 1.875-.666 2.738-1.616 3.699A2.99 2.99 0 0 0 7 7c-1.654 0-3 1.346-3 3v6c0 1.654 1.346 3 3 3 .755 0 1.438-.29 1.965-.752.064.062.117.141.188.193.96.736 3.667 1.559 5.848 1.559 1.879 0 2.608-.293 3.253-.553.104-.041.207-.084.316-.123.834-.305 1.576-1.227 1.736-2.2l.666-5.974c.173-1.037-.443-2.125-1.402-2.474zM7 17c-.551 0-1-.448-1-1v-6a1.001 1.001 0 0 1 2 0v6c0 .552-.449 1-1 1zm11.327-.15c-.037.224-.292.541-.443.596-.131.049-.254.099-.376.146-.545.219-1.016.408-2.508.408-1.914 0-4.118-.753-4.632-1.146C10.21 16.734 10 16.29 10 16v-4.98c.003-.047.051-.656.707-1.312C11.62 8.794 13 7.414 13 4.5c0-.275.225-.5.5-.5s.5.225.5.5c0 1.407-.146 2.73-.479 4.293l-.297 1.396 1.321-.188c.603.05 3.933.447 4.334.55.058.03.132.183.111.323l-.663 5.976z"/></symbol><symbol id="icon-thumbs-down" viewBox="0 0 24 24"><path d="M17 5c-.755 0-1.438.289-1.965.751-.064-.062-.116-.14-.188-.192C13.887 4.822 11.182 4 9 4c-1.879 0-2.607.293-3.252.552-.103.042-.207.085-.316.124-.834.305-1.578 1.229-1.738 2.2l-.664 5.972c-.174 1.039.441 2.127 1.4 2.478.394.144 2.512.405 3.883.56a20.912 20.912 0 0 0-.312 3.616c0 1.379 1.121 2.5 2.5 2.5s2.5-1.121 2.5-2.5c0-1.875.667-2.737 1.616-3.699a2.985 2.985 0 0 0 2.384 1.199 3.004 3.004 0 0 0 2.999-3v-6A3.005 3.005 0 0 0 17 5zm-6 14.5c0 .275-.225.5-.5.5s-.5-.225-.5-.5c0-1.805.256-3.241.479-4.293l.297-1.398-1.321.188c-.605-.05-3.934-.447-4.335-.552-.058-.028-.132-.18-.108-.321l.663-5.976c.037-.223.291-.539.443-.594.131-.049.254-.099.377-.146C7.039 6.189 7.51 6 9.001 6c1.914 0 4.118.753 4.633 1.146.156.12.366.564.366.854v4.977c-.001.026-.04.649-.707 1.316C12.38 15.206 11 16.586 11 19.5zm7-5.5a1 1 0 0 1-2 0V8a1 1 0 0 1 2 0v6z"/></symbol><symbol id="icon-close" viewBox="0 0 32 32"><path d="m18.613 15.912 12.96-12.96A1.78 1.78 0 0 0 31.48.539a1.775 1.775 0 0 0-2.414-.093l-12.96 12.96L3.146.428A1.78 1.78 0 0 0 .733.521 1.775 1.775 0 0 0 .64 2.934L13.6 15.912.622 28.872a1.785 1.785 0 0 0-.62 1.282 1.79 1.79 0 0 0 .519 1.326 1.767 1.767 0 0 0 1.326.519 1.785 1.785 0 0 0 1.282-.62l12.978-12.96 12.96 12.96a1.78 1.78 0 0 0 2.414-.093 1.775 1.775 0 0 0 .093-2.413l-12.96-12.96z"/></symbol><symbol id="icon-film" viewBox="0 0 32 32"><path fill="none" style="stroke:var(--color1,currentColor)" stroke-linejoin="round" stroke-linecap="round" stroke-width="2.667" d="M9.333 2.667v26.667M22.667 2.667v26.667M2.667 16h26.667M2.667 9.333h6.667M26.427 2.667H5.574a2.907 2.907 0 0 0-2.907 2.907v20.853a2.907 2.907 0 0 0 2.907 2.907h20.853a2.907 2.907 0 0 0 2.907-2.907V5.574a2.907 2.907 0 0 0-2.907-2.907zM2.667 22.667h6.667M22.667 22.667h6.667M22.667 9.333h6.667"/></symbol><symbol id="icon-play" viewBox="0 0 32 32"><path d="M30.662 5.003C26.174 4.358 21.214 4 16 4S5.826 4.358 1.338 5.003C.478 8.369 0 12.089 0 16s.477 7.63 1.338 10.997C5.827 27.642 10.786 28 16 28s10.174-.358 14.662-1.003C31.522 23.631 32 19.911 32 16s-.477-7.63-1.338-10.997zM12 22V10l10 6-10 6z"/></symbol><symbol id="icon-btnUp" viewBox="0 0 32 32"><path d="m27.414 12.586-10-10a2 2 0 0 0-2.828 0l-10 10a2 2 0 1 0 2.828 2.828L14 8.828V28a2 2 0 1 0 4 0V8.828l6.586 6.586c.39.39.902.586 1.414.586s1.024-.195 1.414-.586a2 2 0 0 0 0-2.828z"/></symbol></defs></svg>