<svg aria-hidden="true" style="position: absolute; width: 0; height: 0; overflow: hidden;" version="1.1"
        xmlns="http://www.w3.org/2000/svg"
        xmlns:xlink="http://www.w3.org/1999/xlink">
        <defs>
                <symbol id="icon-search" viewBox="0 0 32 32">
                        <path fill="none" stroke="#fff" style="stroke: var(--color1, #fff)" stroke-linejoin="round" stroke-linecap="round" stroke-miterlimit="4" stroke-width="2.6667" d="M14.667 25.333c5.891 0 10.667-4.776 10.667-10.667s-4.776-10.667-10.667-10.667c-5.891 0-10.667 4.776-10.667 10.667s4.776 10.667 10.667 10.667z"></path>
                        <path fill="none" stroke="#fff" style="stroke: var(--color1, #fff)" stroke-linejoin="round" stroke-linecap="round" stroke-miterlimit="4" stroke-width="2.6667" d="M28 28.001l-5.8-5.8"></path>
                </symbol>
                <symbol id="icon-heart" viewBox="0 0 34 32">
                        <path fill="#ff6b08" style="fill: var(--color2, #ff6b08)" d="M17.231 31.705l-2.412-2.412c-8.96-7.926-14.818-13.268-14.818-19.815 0-5.342 4.135-9.477 9.477-9.477 2.929 0 5.858 1.378 7.754 3.618 1.895-2.24 4.825-3.618 7.754-3.618 5.342 0 9.477 4.135 9.477 9.477 0 6.548-5.858 11.889-14.818 19.815l-2.412 2.412z"></path>
                </symbol>
                <symbol id="icon-thumbs-up" viewBox="0 0 24 24">
                        <path d="M19.57 8.676c-0.391-0.144-2.512-0.406-3.883-0.56 0.215-1.255 0.313-2.405 0.313-3.616 0-1.379-1.122-2.5-2.5-2.5s-2.5 1.121-2.5 2.5c0 1.875-0.666 2.738-1.616 3.699-0.548-0.722-1.407-1.199-2.384-1.199-1.654 0-3 1.346-3 3v6c0 1.654 1.346 3 3 3 0.755 0 1.438-0.29 1.965-0.752 0.064 0.062 0.117 0.141 0.188 0.193 0.96 0.736 3.667 1.559 5.848 1.559 1.879 0 2.608-0.293 3.253-0.553 0.104-0.041 0.207-0.084 0.316-0.123 0.834-0.305 1.576-1.227 1.736-2.2l0.666-5.974c0.173-1.037-0.443-2.125-1.402-2.474zM7 17c-0.551 0-1-0.448-1-1v-6c0-0.552 0.449-1 1-1s1 0.448 1 1v6c0 0.552-0.449 1-1 1zM18.327 16.85c-0.037 0.224-0.292 0.541-0.443 0.596-0.131 0.049-0.254 0.099-0.376 0.146-0.545 0.219-1.016 0.408-2.508 0.408-1.914 0-4.118-0.753-4.632-1.146-0.158-0.12-0.368-0.564-0.368-0.854v-4.98c0.003-0.047 0.051-0.656 0.707-1.312 0.913-0.914 2.293-2.294 2.293-5.208 0-0.275 0.225-0.5 0.5-0.5s0.5 0.225 0.5 0.5c0 1.407-0.146 2.73-0.479 4.293l-0.297 1.396 1.321-0.188c0.603 0.050 3.933 0.447 4.334 0.55 0.058 0.030 0.132 0.183 0.111 0.323l-0.663 5.976z"></path>
                </symbol>
                <symbol id="icon-thumbs-down" viewBox="0 0 24 24">
                        <path d="M17 5c-0.755 0-1.438 0.289-1.965 0.751-0.064-0.062-0.116-0.14-0.188-0.192-0.96-0.737-3.665-1.559-5.847-1.559-1.879 0-2.607 0.293-3.252 0.552-0.103 0.042-0.207 0.085-0.316 0.124-0.834 0.305-1.578 1.229-1.738 2.2l-0.664 5.972c-0.174 1.039 0.441 2.127 1.4 2.478 0.394 0.144 2.512 0.405 3.883 0.56-0.215 1.256-0.312 2.405-0.312 3.616 0 1.379 1.121 2.5 2.5 2.5s2.5-1.121 2.5-2.5c0-1.875 0.667-2.737 1.616-3.699 0.548 0.724 1.408 1.199 2.384 1.199 1.653 0 2.999-1.347 2.999-3v-6c-0.001-1.656-1.346-3.002-3-3.002zM11 19.5c0 0.275-0.225 0.5-0.5 0.5s-0.5-0.225-0.5-0.5c0-1.805 0.256-3.241 0.479-4.293l0.297-1.398-1.321 0.188c-0.605-0.050-3.934-0.447-4.335-0.552-0.058-0.028-0.132-0.18-0.108-0.321l0.663-5.976c0.037-0.223 0.291-0.539 0.443-0.594 0.131-0.049 0.254-0.099 0.377-0.146 0.544-0.219 1.015-0.408 2.506-0.408 1.914 0 4.118 0.753 4.633 1.146 0.156 0.12 0.366 0.564 0.366 0.854v4.977c-0.001 0.026-0.040 0.649-0.707 1.316-0.913 0.913-2.293 2.293-2.293 5.207zM18 14c0 0.552-0.448 1-1 1s-1-0.448-1-1v-6c0-0.552 0.448-1 1-1s1 0.448 1 1v6z"></path>
                </symbol>
                <symbol id="icon-close" viewBox="0 0 32 32">
                        <path d="M18.613 15.912l12.96-12.96c0.291-0.34 0.443-0.778 0.426-1.225s-0.203-0.872-0.519-1.188c-0.317-0.317-0.741-0.502-1.189-0.519s-0.885 0.135-1.225 0.426l-12.96 12.96-12.96-12.978c-0.34-0.291-0.778-0.443-1.225-0.426s-0.872 0.203-1.188 0.519c-0.317 0.317-0.502 0.741-0.519 1.188s0.135 0.885 0.426 1.225l12.96 12.978-12.978 12.96c-0.186 0.159-0.337 0.356-0.444 0.576s-0.167 0.461-0.176 0.706c-0.009 0.245 0.032 0.489 0.121 0.717s0.225 0.435 0.398 0.609c0.173 0.173 0.38 0.309 0.609 0.398s0.472 0.131 0.717 0.121 0.485-0.069 0.706-0.176c0.221-0.107 0.417-0.258 0.576-0.444l12.978-12.96 12.96 12.96c0.34 0.291 0.778 0.443 1.225 0.426s0.872-0.203 1.189-0.519c0.317-0.317 0.502-0.741 0.519-1.188s-0.135-0.885-0.426-1.225l-12.96-12.96z"></path>
                </symbol>
                <symbol id="icon-film" viewBox="0 0 32 32">
                        <path fill="none" style="stroke: var(--color1, currentColor)" stroke-linejoin="round" stroke-linecap="round" stroke-miterlimit="4" stroke-width="2.6667" d="M9.333 2.667v26.667"></path>
                        <path fill="none" style="stroke: var(--color1, currentColor)" stroke-linejoin="round" stroke-linecap="round" stroke-miterlimit="4" stroke-width="2.6667" d="M22.667 2.667v26.667"></path>
                        <path fill="none" style="stroke: var(--color1, currentColor)" stroke-linejoin="round" stroke-linecap="round" stroke-miterlimit="4" stroke-width="2.6667" d="M2.667 16h26.667"></path>
                        <path fill="none" style="stroke: var(--color1, currentColor)" stroke-linejoin="round" stroke-linecap="round" stroke-miterlimit="4" stroke-width="2.6667" d="M2.667 9.333h6.667"></path>
                        <path fill="none" style="stroke: var(--color1, currentColor)" stroke-linejoin="round" stroke-linecap="round" stroke-miterlimit="4" stroke-width="2.6667" d="M26.427 2.667h-20.853c-1.605 0-2.907 1.301-2.907 2.907v20.853c0 1.605 1.301 2.907 2.907 2.907h20.853c1.605 0 2.907-1.301 2.907-2.907v-20.853c0-1.605-1.301-2.907-2.907-2.907z"></path>
                        <path fill="none" style="stroke: var(--color1, currentColor)" stroke-linejoin="round" stroke-linecap="round" stroke-miterlimit="4" stroke-width="2.6667" d="M2.667 22.667h6.667"></path>
                        <path fill="none" style="stroke: var(--color1, currentColor)" stroke-linejoin="round" stroke-linecap="round" stroke-miterlimit="4" stroke-width="2.6667" d="M22.667 22.667h6.667"></path>
                        <path fill="none" style="stroke: var(--color1, currentColor)" stroke-linejoin="round" stroke-linecap="round" stroke-miterlimit="4" stroke-width="2.6667" d="M22.667 9.333h6.667"></path>
                </symbol>
                <symbol id="icon-play" viewBox="0 0 32 32">
                        <path d="M30.662 5.003c-4.488-0.645-9.448-1.003-14.662-1.003s-10.174 0.358-14.662 1.003c-0.86 3.366-1.338 7.086-1.338 10.997s0.477 7.63 1.338 10.997c4.489 0.645 9.448 1.003 14.662 1.003s10.174-0.358 14.662-1.003c0.86-3.366 1.338-7.086 1.338-10.997s-0.477-7.63-1.338-10.997zM12 22v-12l10 6-10 6z"></path>
                </symbol>
                <symbol id="icon-btnUp" viewBox="0 0 32 32">
                        <path d="M27.414 12.586l-10-10c-0.781-0.781-2.047-0.781-2.828 0l-10 10c-0.781 0.781-0.781 2.047 0 2.828s2.047 0.781 2.828 0l6.586-6.586v19.172c0 1.105 0.895 2 2 2s2-0.895 2-2v-19.172l6.586 6.586c0.39 0.39 0.902 0.586 1.414 0.586s1.024-0.195 1.414-0.586c0.781-0.781 0.781-2.047 0-2.828z"></path>
                </symbol>
        </defs>
</svg>
