<svg aria-hidden="true" style="position: absolute; width: 0; height: 0; overflow: hidden;" version="1.1"
        xmlns="http://www.w3.org/2000/svg"
        xmlns:xlink="http://www.w3.org/1999/xlink">
        <defs>
                <symbol id="icon-search" viewBox="0 0 32 32">
                        <path fill="none" stroke="#fff" style="stroke: var(--color1, #fff)" stroke-linejoin="round" stroke-linecap="round" stroke-miterlimit="4" stroke-width="2.6667" d="M14.667 25.333c5.891 0 10.667-4.776 10.667-10.667s-4.776-10.667-10.667-10.667c-5.891 0-10.667 4.776-10.667 10.667s4.776 10.667 10.667 10.667z"></path>
                        <path fill="none" stroke="#fff" style="stroke: var(--color1, #fff)" stroke-linejoin="round" stroke-linecap="round" stroke-miterlimit="4" stroke-width="2.6667" d="M28 28.001l-5.8-5.8"></path>
                </symbol>
                <symbol id="icon-heart" viewBox="0 0 34 32">
                        <path fill="#ff6b08" style="fill: var(--color2, #ff6b08)" d="M17.231 31.705l-2.412-2.412c-8.96-7.926-14.818-13.268-14.818-19.815 0-5.342 4.135-9.477 9.477-9.477 2.929 0 5.858 1.378 7.754 3.618 1.895-2.24 4.825-3.618 7.754-3.618 5.342 0 9.477 4.135 9.477 9.477 0 6.548-5.858 11.889-14.818 19.815l-2.412 2.412z"></path>
                </symbol>
                <symbol id="icon-close" viewBox="0 0 32 32">
                        <path d="M18.613 15.912l12.96-12.96c0.291-0.34 0.443-0.778 0.426-1.225s-0.203-0.872-0.519-1.188c-0.317-0.317-0.741-0.502-1.189-0.519s-0.885 0.135-1.225 0.426l-12.96 12.96-12.96-12.978c-0.34-0.291-0.778-0.443-1.225-0.426s-0.872 0.203-1.188 0.519c-0.317 0.317-0.502 0.741-0.519 1.188s0.135 0.885 0.426 1.225l12.96 12.978-12.978 12.96c-0.186 0.159-0.337 0.356-0.444 0.576s-0.167 0.461-0.176 0.706c-0.009 0.245 0.032 0.489 0.121 0.717s0.225 0.435 0.398 0.609c0.173 0.173 0.38 0.309 0.609 0.398s0.472 0.131 0.717 0.121 0.485-0.069 0.706-0.176c0.221-0.107 0.417-0.258 0.576-0.444l12.978-12.96 12.96 12.96c0.34 0.291 0.778 0.443 1.225 0.426s0.872-0.203 1.189-0.519c0.317-0.317 0.502-0.741 0.519-1.188s-0.135-0.885-0.426-1.225l-12.96-12.96z"></path>
                </symbol>
                <symbol id="icon-film" viewBox="0 0 32 32">
                        <path fill="none" style="stroke: var(--color1, currentColor)" stroke-linejoin="round" stroke-linecap="round" stroke-miterlimit="4" stroke-width="2.6667" d="M9.333 2.667v26.667"></path>
                        <path fill="none" style="stroke: var(--color1, currentColor)" stroke-linejoin="round" stroke-linecap="round" stroke-miterlimit="4" stroke-width="2.6667" d="M22.667 2.667v26.667"></path>
                        <path fill="none" style="stroke: var(--color1, currentColor)" stroke-linejoin="round" stroke-linecap="round" stroke-miterlimit="4" stroke-width="2.6667" d="M2.667 16h26.667"></path>
                        <path fill="none" style="stroke: var(--color1, currentColor)" stroke-linejoin="round" stroke-linecap="round" stroke-miterlimit="4" stroke-width="2.6667" d="M2.667 9.333h6.667"></path>
                        <path fill="none" style="stroke: var(--color1, currentColor)" stroke-linejoin="round" stroke-linecap="round" stroke-miterlimit="4" stroke-width="2.6667" d="M26.427 2.667h-20.853c-1.605 0-2.907 1.301-2.907 2.907v20.853c0 1.605 1.301 2.907 2.907 2.907h20.853c1.605 0 2.907-1.301 2.907-2.907v-20.853c0-1.605-1.301-2.907-2.907-2.907z"></path>
                        <path fill="none" style="stroke: var(--color1, currentColor)" stroke-linejoin="round" stroke-linecap="round" stroke-miterlimit="4" stroke-width="2.6667" d="M2.667 22.667h6.667"></path>
                        <path fill="none" style="stroke: var(--color1, currentColor)" stroke-linejoin="round" stroke-linecap="round" stroke-miterlimit="4" stroke-width="2.6667" d="M22.667 22.667h6.667"></path>
                        <path fill="none" style="stroke: var(--color1, currentColor)" stroke-linejoin="round" stroke-linecap="round" stroke-miterlimit="4" stroke-width="2.6667" d="M22.667 9.333h6.667"></path>
                </symbol>
                <symbol id="icon-play" viewBox="0 0 32 32">
                        <path d="M30.662 5.003c-4.488-0.645-9.448-1.003-14.662-1.003s-10.174 0.358-14.662 1.003c-0.86 3.366-1.338 7.086-1.338 10.997s0.477 7.63 1.338 10.997c4.489 0.645 9.448 1.003 14.662 1.003s10.174-0.358 14.662-1.003c0.86-3.366 1.338-7.086 1.338-10.997s-0.477-7.63-1.338-10.997zM12 22v-12l10 6-10 6z"></path>
                </symbol>
                <symbol id="icon-btnUp" viewBox="0 0 32 32">
                        <path d="M27.414 12.586l-10-10c-0.781-0.781-2.047-0.781-2.828 0l-10 10c-0.781 0.781-0.781 2.047 0 2.828s2.047 0.781 2.828 0l6.586-6.586v19.172c0 1.105 0.895 2 2 2s2-0.895 2-2v-19.172l6.586 6.586c0.39 0.39 0.902 0.586 1.414 0.586s1.024-0.195 1.414-0.586c0.781-0.781 0.781-2.047 0-2.828z"></path>
                </symbol>
        </defs>
</svg>
